<?xml version="1.0" encoding="iso-8859-1"?>
<!-- Generator: Adobe Illustrator 18.1.1, SVG Export Plug-In . SVG Version: 6.00 Build 0)  -->
<svg xmlns="http://www.w3.org/2000/svg" xmlns:xlink="http://www.w3.org/1999/xlink" version="1.1" id="Capa_1" x="0px" y="0px" viewBox="0 0 490.078 490.078" style="enable-background:new 0 0 490.078 490.078;" xml:space="preserve" width="512px" height="512px">
<g>
	<g>
		<path d="M91.441,155.391h310.78v251.016H91.441L91.441,155.391L91.441,155.391z M484.102,59.766v406.406    c0,6.773-2.291,12.451-6.873,17.033s-10.264,6.873-17.033,6.873H29.883c-6.773,0-12.451-2.291-17.033-6.873    s-6.873-10.26-6.873-17.033V59.765c0-6.773,2.291-12.451,6.873-17.033s10.26-6.873,17.033-6.873h59.766V11.355    c0-3.187,1.096-5.877,3.287-8.068S97.816,0,101.004,0h25.103c3.187,0,5.877,1.096,8.068,3.287c2.191,2.191,3.287,4.88,3.287,8.068    v24.504h43.031V13.746c0-3.585,1.395-6.773,4.184-9.562S190.652,0,194.238,0h20.32c3.585,0,6.773,1.395,9.562,4.184    s4.184,5.976,4.184,9.562v22.113h35.859V13.746c0-3.585,1.396-6.773,4.184-9.562C271.137,1.395,274.324,0,277.91,0h20.32    c3.584,0,6.771,1.395,9.561,4.184c2.791,2.789,4.186,5.976,4.186,9.562v22.113h40.643V11.356c0-3.187,1.096-5.877,3.287-8.068    c2.188-2.191,4.879-3.287,8.064-3.287h25.105c3.186,0,5.877,1.096,8.066,3.287s3.285,4.88,3.285,8.068V35.86h59.768    c6.771,0,12.451,2.291,17.033,6.873S484.102,52.993,484.102,59.766z M436.285,95.027c0-3.188-1.096-5.877-3.287-8.068    c-2.189-2.191-4.879-3.287-8.068-3.287h-24.504v24.504c0,3.187-1.096,5.877-3.287,8.068c-2.188,2.191-4.879,3.287-8.064,3.287    h-25.105c-3.186,0-5.877-1.096-8.064-3.287c-2.191-2.191-3.287-4.88-3.287-8.068V83.672h-40.643v22.113    c0,3.585-1.395,6.773-4.186,9.562c-2.789,2.789-5.975,4.184-9.561,4.184h-20.32c-3.584,0-6.773-1.395-9.563-4.184    s-4.184-5.976-4.184-9.562V83.672h-35.859v22.113c0,3.585-1.395,6.773-4.184,9.562s-5.976,4.184-9.562,4.184h-20.32    c-3.585,0-6.773-1.395-9.562-4.184s-4.184-5.976-4.184-9.562V83.672h-43.031v24.504c0,3.187-1.096,5.877-3.287,8.068    c-2.191,2.191-4.88,3.287-8.068,3.287h-25.102c-3.187,0-5.877-1.096-8.068-3.287s-3.287-4.88-3.287-8.068V83.672H65.145    c-3.187,0-5.877,1.096-8.068,3.287s-3.287,4.88-3.287,8.068V430.91c0,3.186,1.096,5.877,3.287,8.068    c2.191,2.188,4.88,3.284,8.068,3.284h359.786c3.189,0,5.877-1.096,8.068-3.284c2.191-2.191,3.287-4.882,3.287-8.068    L436.285,95.027L436.285,95.027z" fill="#FFFFFF"/>
	</g>
</g>
<g>
</g>
<g>
</g>
<g>
</g>
<g>
</g>
<g>
</g>
<g>
</g>
<g>
</g>
<g>
</g>
<g>
</g>
<g>
</g>
<g>
</g>
<g>
</g>
<g>
</g>
<g>
</g>
<g>
</g>
</svg>
