<?xml version="1.0" encoding="iso-8859-1"?>
<!-- Generator: Adobe Illustrator 16.0.0, SVG Export Plug-In . SVG Version: 6.00 Build 0)  -->
<!DOCTYPE svg PUBLIC "-//W3C//DTD SVG 1.1//EN" "http://www.w3.org/Graphics/SVG/1.1/DTD/svg11.dtd">
<svg xmlns="http://www.w3.org/2000/svg" xmlns:xlink="http://www.w3.org/1999/xlink" version="1.1" id="Capa_1" x="0px" y="0px" width="512px" height="512px" viewBox="0 0 28.519 28.52" style="enable-background:new 0 0 28.519 28.52;" xml:space="preserve">
<g>
	<g>
		<path d="M14.26,0C7.929,0,2.779,5.15,2.779,11.481c0,1.103,0.16,2.201,0.463,3.225c1.556,6.297,10.086,13.048,10.448,13.332    l0.617,0.481l0.617-0.482c0.41-0.322,10.065-7.963,10.67-14.606l0.015-0.22c0.089-0.578,0.133-1.158,0.133-1.729    C25.74,5.15,20.589,0,14.26,0z M23.587,13.156l-0.146,0.97l0.02,0.004c-1.088,4.722-7.179,10.163-9.153,11.824    c-1.958-1.647-7.959-7.013-9.137-11.774c-0.26-0.881-0.392-1.789-0.392-2.699C4.779,6.253,9.032,2,14.26,2    c5.227,0,9.48,4.253,9.479,9.479C23.739,12.033,23.689,12.596,23.587,13.156z" fill="#FFFFFF"/>
		<path d="M14.403,4.24c-2.916,0-5.288,2.371-5.288,5.287s2.372,5.288,5.288,5.288c2.915,0,5.287-2.372,5.287-5.288    S17.318,4.24,14.403,4.24z M14.403,12.815c-1.813,0-3.288-1.475-3.288-3.288c0-1.812,1.475-3.287,3.288-3.287    c1.812,0,3.287,1.475,3.287,3.287C17.69,11.34,16.214,12.815,14.403,12.815z" fill="#FFFFFF"/>
	</g>
</g>
<g>
</g>
<g>
</g>
<g>
</g>
<g>
</g>
<g>
</g>
<g>
</g>
<g>
</g>
<g>
</g>
<g>
</g>
<g>
</g>
<g>
</g>
<g>
</g>
<g>
</g>
<g>
</g>
<g>
</g>
</svg>
