<?xml version="1.0" encoding="iso-8859-1"?>
<!-- Generator: Adobe Illustrator 18.1.1, SVG Export Plug-In . SVG Version: 6.00 Build 0)  -->
<svg xmlns="http://www.w3.org/2000/svg" xmlns:xlink="http://www.w3.org/1999/xlink" version="1.1" id="Capa_1" x="0px" y="0px" viewBox="0 0 525.938 525.938" style="enable-background:new 0 0 525.938 525.938;" xml:space="preserve" width="512px" height="512px">
<g>
	<g>
		<path d="M368.754,43.629C339.668,14.543,304.407,0,262.969,0S186.27,14.543,157.184,43.629    s-43.629,64.348-43.629,105.785c0,22.711,4.881,44.127,14.643,64.249c9.762,20.122,23.01,37.153,39.744,51.1l95.027,261.175    l95.027-261.176c16.731-13.945,29.979-30.979,39.744-51.1c9.762-20.121,14.643-41.537,14.643-64.249    C412.383,107.976,397.84,72.715,368.754,43.629z M292.553,178.998c-8.168,8.168-18.029,12.252-29.584,12.252    s-21.416-4.084-29.584-12.252s-12.252-18.029-12.252-29.584s4.084-21.416,12.252-29.584s18.029-12.252,29.584-12.252    s21.416,4.084,29.584,12.252c8.168,8.168,12.252,18.029,12.252,29.584S300.721,170.83,292.553,178.998z" fill="#FFFFFF"/>
	</g>
</g>
<g>
</g>
<g>
</g>
<g>
</g>
<g>
</g>
<g>
</g>
<g>
</g>
<g>
</g>
<g>
</g>
<g>
</g>
<g>
</g>
<g>
</g>
<g>
</g>
<g>
</g>
<g>
</g>
<g>
</g>
</svg>
