<?xml version="1.0" encoding="iso-8859-1"?>
<!-- Generator: Adobe Illustrator 18.1.1, SVG Export Plug-In . SVG Version: 6.00 Build 0)  -->
<svg xmlns="http://www.w3.org/2000/svg" xmlns:xlink="http://www.w3.org/1999/xlink" version="1.1" id="Capa_1" x="0px" y="0px" viewBox="0 0 16 16" style="enable-background:new 0 0 16 16;" xml:space="preserve" width="512px" height="512px">
<g>
	<path d="M12,3.991V2.009C12,1.452,11.556,1,11,1c-0.553,0-1,0.443-1,1.009V3.99C10,4.548,10.444,5,11,5   C11.553,5,12,4.557,12,3.991z M14.006,3H13v1.002C13,5.102,12.104,6,11,6C9.888,6,9,5.105,9,4.002V3H7v1.002C7,5.102,6.104,6,5,6   C3.888,6,3,5.105,3,4.002V3H1.994C0.893,3,0,3.902,0,5.008v7.983C0,14.101,0.895,15,1.994,15h12.012C15.107,15,16,14.098,16,12.991   V5.008C16,3.899,15.105,3,14.006,3z M7,10v1H6H4v1h3v1H4H3v-3h1h2V9H3V8h3h1V10z M13,13h-1V9H9V8h3h1V13z M6,3.991V2.009   C6,1.452,5.556,1,5,1C4.447,1,4,1.443,4,2.009V3.99C4,4.548,4.444,5,5,5C5.553,5,6,4.557,6,3.991z" fill="#FFFFFF"/>
</g>
<g>
</g>
<g>
</g>
<g>
</g>
<g>
</g>
<g>
</g>
<g>
</g>
<g>
</g>
<g>
</g>
<g>
</g>
<g>
</g>
<g>
</g>
<g>
</g>
<g>
</g>
<g>
</g>
<g>
</g>
</svg>
