<?xml version="1.0" encoding="iso-8859-1"?>
<!-- Generator: Adobe Illustrator 19.0.0, SVG Export Plug-In . SVG Version: 6.00 Build 0)  -->
<svg xmlns="http://www.w3.org/2000/svg" xmlns:xlink="http://www.w3.org/1999/xlink" version="1.1" id="Layer_1" x="0px" y="0px" viewBox="0 0 456.644 456.644" style="enable-background:new 0 0 456.644 456.644;" xml:space="preserve" width="512px" height="512px">
<g>
	<g>
		<path d="M431.465,25.209c-33.61-33.61-88.01-33.615-121.625,0L32.191,302.859c-2.037,2.036-3.443,4.616-4.054,7.431L0.37,438.469    c-1.08,4.984,0.447,10.176,4.054,13.782c2.843,2.844,6.671,4.393,10.607,4.393c1.057,0,2.121-0.111,3.176-0.34l128.18-27.768    c2.814-0.61,5.395-2.017,7.431-4.054l277.649-277.649C464.997,113.302,464.997,58.742,431.465,25.209z M34.622,422.053    l20.79-95.973l75.182,75.182L34.622,422.053z M386.197,149.677l-79.199-79.2l21.213-21.213l79.199,79.2L386.197,149.677z" fill="#FFFFFF"/>
	</g>
</g>
<g>
</g>
<g>
</g>
<g>
</g>
<g>
</g>
<g>
</g>
<g>
</g>
<g>
</g>
<g>
</g>
<g>
</g>
<g>
</g>
<g>
</g>
<g>
</g>
<g>
</g>
<g>
</g>
<g>
</g>
</svg>
