<?xml version="1.0" encoding="iso-8859-1"?>
<!-- Generator: Adobe Illustrator 18.1.1, SVG Export Plug-In . SVG Version: 6.00 Build 0)  -->
<svg xmlns="http://www.w3.org/2000/svg" xmlns:xlink="http://www.w3.org/1999/xlink" version="1.1" id="Capa_1" x="0px" y="0px" viewBox="0 0 14 14" style="enable-background:new 0 0 14 14;" xml:space="preserve" width="512px" height="512px">
<g>
	<path d="M3,7h1v3H3V7z" fill="#FFFFFF"/>
	<path d="M0,9v3.005C0,12.555,0.45,13,1.007,13h11.986C13.549,13,14,12.544,14,12.005V9h-2v2H9V9H5v2H2V9H0z" fill="#FFFFFF"/>
	<path d="M12.993,3H11V1.999C11,1.447,10.547,1,10.003,1H3.997C3.446,1,3,1.443,3,1.999V3H1.007   C0.451,3,0,3.456,0,3.996V8h2V6h3v2h4V6h3v2h2V3.996C14,3.446,13.55,3,12.993,3z M10,3H4V2h6V3z" fill="#FFFFFF"/>
	<path d="M10,7h1v3h-1V7z" fill="#FFFFFF"/>
</g>
<g>
</g>
<g>
</g>
<g>
</g>
<g>
</g>
<g>
</g>
<g>
</g>
<g>
</g>
<g>
</g>
<g>
</g>
<g>
</g>
<g>
</g>
<g>
</g>
<g>
</g>
<g>
</g>
<g>
</g>
</svg>
