<?xml version="1.0" encoding="iso-8859-1"?>
<!-- Generator: Adobe Illustrator 18.1.1, SVG Export Plug-In . SVG Version: 6.00 Build 0)  -->
<svg xmlns="http://www.w3.org/2000/svg" xmlns:xlink="http://www.w3.org/1999/xlink" version="1.1" id="Capa_1" x="0px" y="0px" viewBox="0 0 26.25 26.25" style="enable-background:new 0 0 26.25 26.25;" xml:space="preserve" width="512px" height="512px">
<g>
	<path d="M23.605,10.481C23.605,4.692,18.915,0,13.125,0S2.644,4.692,2.644,10.481   c0,1.036,0.153,2.036,0.433,2.983C4.569,19.5,13.172,26.25,13.172,26.25s9.718-7.623,10.291-13.911l-0.023-0.005   C23.547,11.732,23.605,11.114,23.605,10.481z M13.268,12.815c-2.368,0-4.288-1.92-4.288-4.288s1.92-4.288,4.288-4.288   c2.367,0,4.287,1.92,4.287,4.288C17.555,10.895,15.635,12.815,13.268,12.815z" fill="#FFFFFF"/>
</g>
<g>
</g>
<g>
</g>
<g>
</g>
<g>
</g>
<g>
</g>
<g>
</g>
<g>
</g>
<g>
</g>
<g>
</g>
<g>
</g>
<g>
</g>
<g>
</g>
<g>
</g>
<g>
</g>
<g>
</g>
</svg>
