<?xml version="1.0" encoding="iso-8859-1"?>
<!-- Generator: Adobe Illustrator 18.1.1, SVG Export Plug-In . SVG Version: 6.00 Build 0)  -->
<svg xmlns="http://www.w3.org/2000/svg" xmlns:xlink="http://www.w3.org/1999/xlink" version="1.1" id="Capa_1" x="0px" y="0px" viewBox="0 0 15 15" style="enable-background:new 0 0 15 15;" xml:space="preserve" width="512px" height="512px">
<g>
	<g>
		<polygon points="10.486,0.012 10.486,4.028 13.53,4.028   " fill="#FFFFFF"/>
		<path d="M9.47,0h-8v15h8h4V5h-4V0z M2.47,1h6v1h-6V1z M2.47,3h6v1h-6V3z M2.47,5h6v1h-6V5z M12.47,14h-10    v-1h10V14z M12.47,12h-10v-1h10V12z M12.47,10h-10V9h10V10z M12.47,7v1h-10V7H12.47z" fill="#FFFFFF"/>
	</g>
</g>
<g>
</g>
<g>
</g>
<g>
</g>
<g>
</g>
<g>
</g>
<g>
</g>
<g>
</g>
<g>
</g>
<g>
</g>
<g>
</g>
<g>
</g>
<g>
</g>
<g>
</g>
<g>
</g>
<g>
</g>
</svg>
