<?xml version="1.0" encoding="iso-8859-1"?>
<!-- Generator: Adobe Illustrator 18.1.1, SVG Export Plug-In . SVG Version: 6.00 Build 0)  -->
<svg xmlns="http://www.w3.org/2000/svg" xmlns:xlink="http://www.w3.org/1999/xlink" version="1.1" id="Capa_1" x="0px" y="0px" viewBox="0 0 534.307 534.307" style="enable-background:new 0 0 534.307 534.307;" xml:space="preserve" width="512px" height="512px">
<g>
	<g>
		<path d="M451.825,108.773h-94.43c-1.992-1.992-4.184-3.984-6.574-5.977    c-9.961-8.766-21.914-15.539-35.857-20.32c3.586-7.969,5.379-16.336,5.379-25.102c0-15.938-5.277-29.484-15.838-40.641    C293.944,5.576,281.194,0,266.255,0c-14.939,0-27.691,5.578-38.25,16.734c-10.559,11.156-15.838,24.703-15.838,40.641    c0,8.766,1.793,17.133,5.379,25.102c-13.945,4.781-25.898,11.555-35.859,20.32c-1.992,1.594-3.984,3.586-5.977,5.977H82.476    h-17.93v17.93v389.671v17.932h17.93h369.351h17.934v-17.932V126.703v-17.93L451.825,108.773L451.825,108.773z M248.024,38.848    c5.179-5.18,11.355-7.771,18.527-7.771c6.772,0,12.552,2.49,17.333,7.471s7.174,11.057,7.174,18.229    c-1.195,9.562-5.578,16.236-13.148,20.021c-7.568,3.785-15.24,3.785-23.01,0c-7.77-3.785-12.252-10.459-13.447-20.021    C240.653,50.005,242.845,44.028,248.024,38.848z M205.591,122.519c15.937-15.14,36.456-22.711,61.558-22.711    c24.305,0,43.829,7.57,58.571,22.711c7.172,5.977,11.354,12.352,12.551,19.125h0.598v0.598h-145.23v-0.598h-0.598    C194.634,134.871,198.817,128.496,205.591,122.519z M419.55,480.516H183.477c-55.781-83.273-79.09-195.234-69.926-335.884h53.191    c-0.398,1.594-0.598,3.387-0.598,5.379c0,3.586,0.398,6.973,1.195,10.16l1.793,10.16h9.562H353.21h9.563l1.793-10.16    c0.797-3.188,1.195-6.574,1.195-10.16c0-1.992-0.199-3.785-0.602-5.379h54.391V480.516z" fill="#FFFFFF"/>
	</g>
</g>
<g>
</g>
<g>
</g>
<g>
</g>
<g>
</g>
<g>
</g>
<g>
</g>
<g>
</g>
<g>
</g>
<g>
</g>
<g>
</g>
<g>
</g>
<g>
</g>
<g>
</g>
<g>
</g>
<g>
</g>
</svg>
