<?xml version="1.0" standalone="no"?><!DOCTYPE svg PUBLIC "-//W3C//DTD SVG 1.1//EN" "http://www.w3.org/Graphics/SVG/1.1/DTD/svg11.dtd"><svg xmlns:xlink="http://www.w3.org/1999/xlink" version="1.1" style="font-family:'lucida grande', 'lucida sans unicode', arial, helvetica, sans-serif;font-size:12px;" xmlns="http://www.w3.org/2000/svg" width="600" height="400"><desc>Created with Highcharts 4.2.7</desc><defs><clipPath id="highcharts-23"><rect x="1" y="1" width="546" height="317"></rect></clipPath></defs><rect x="42" y="10" width="548" height="319" fill="#ffffff"></rect><path fill="rgb(255, 255, 255)" fill-opacity=" .5" d="M 42 329.5 L 590 329.5 590 265.5 42 265.5"></path><path fill="rgb(255, 255, 255)" fill-opacity=" .5" d="M 42 201.5 L 590 201.5 590 138.5 42 138.5"></path><path fill="rgb(255, 255, 255)" fill-opacity=" .5" d="M 42 74.5 L 590 74.5 590 10.5 42 10.5"></path><g class="highcharts-grid"></g><g class="highcharts-grid"><path fill="none" d="M 42 329.5 L 590 329.5" stroke="#C0C0C0" stroke-width="1" opacity="1"></path><path fill="none" d="M 42 265.5 L 590 265.5" stroke="#C0C0C0" stroke-width="1" opacity="1"></path><path fill="none" d="M 42 201.5 L 590 201.5" stroke="#C0C0C0" stroke-width="1" opacity="1"></path><path fill="none" d="M 42 138.5 L 590 138.5" stroke="#C0C0C0" stroke-width="1" opacity="1"></path><path fill="none" d="M 42 74.5 L 590 74.5" stroke="#C0C0C0" stroke-width="1" opacity="1"></path><path fill="none" d="M 42 9.5 L 590 9.5" stroke="#C0C0C0" stroke-width="1" opacity="1"></path></g><rect x="42" y="10" width="548" height="319" stroke="#026FC1" stroke-width="2" fill="none"></rect><g class="highcharts-axis"><path fill="none" d="M 80.5 329 L 80.5 339" stroke="#C0D0E0" stroke-width="1" opacity="1"></path><path fill="none" d="M 119.5 329 L 119.5 339" stroke="#C0D0E0" stroke-width="1" opacity="1"></path><path fill="none" d="M 158.5 329 L 158.5 339" stroke="#C0D0E0" stroke-width="1" opacity="1"></path><path fill="none" d="M 198.5 329 L 198.5 339" stroke="#C0D0E0" stroke-width="1" opacity="1"></path><path fill="none" d="M 237.5 329 L 237.5 339" stroke="#C0D0E0" stroke-width="1" opacity="1"></path><path fill="none" d="M 276.5 329 L 276.5 339" stroke="#C0D0E0" stroke-width="1" opacity="1"></path><path fill="none" d="M 315.5 329 L 315.5 339" stroke="#C0D0E0" stroke-width="1" opacity="1"></path><path fill="none" d="M 354.5 329 L 354.5 339" stroke="#C0D0E0" stroke-width="1" opacity="1"></path><path fill="none" d="M 393.5 329 L 393.5 339" stroke="#C0D0E0" stroke-width="1" opacity="1"></path><path fill="none" d="M 432.5 329 L 432.5 339" stroke="#C0D0E0" stroke-width="1" opacity="1"></path><path fill="none" d="M 472.5 329 L 472.5 339" stroke="#C0D0E0" stroke-width="1" opacity="1"></path><path fill="none" d="M 511.5 329 L 511.5 339" stroke="#C0D0E0" stroke-width="1" opacity="1"></path><path fill="none" d="M 550.5 329 L 550.5 339" stroke="#C0D0E0" stroke-width="1" opacity="1"></path><path fill="none" d="M 590.5 329 L 590.5 339" stroke="#C0D0E0" stroke-width="1" opacity="1"></path><path fill="none" d="M 41.5 329 L 41.5 339" stroke="#C0D0E0" stroke-width="1" opacity="1"></path><path fill="none" d="M 42 329.5 L 590 329.5" stroke="#C0D0E0" stroke-width="1"></path></g><g class="highcharts-axis"><path fill="none" d="M 42 329.5 L 32 329.5" stroke="#C0D0E0" stroke-width="1" opacity="1"></path><path fill="none" d="M 42 265.5 L 32 265.5" stroke="#C0D0E0" stroke-width="1" opacity="1"></path><path fill="none" d="M 42 201.5 L 32 201.5" stroke="#C0D0E0" stroke-width="1" opacity="1"></path><path fill="none" d="M 42 138.5 L 32 138.5" stroke="#C0D0E0" stroke-width="1" opacity="1"></path><path fill="none" d="M 42 74.5 L 32 74.5" stroke="#C0D0E0" stroke-width="1" opacity="1"></path><path fill="none" d="M 42 9.5 L 32 9.5" stroke="#C0D0E0" stroke-width="1" opacity="1"></path></g><g class="highcharts-series-group"><g class="highcharts-series highcharts-series-0" transform="translate(42,10) scale(1 1)" clip-path="url(#highcharts-23)"><rect x="9.5" y="124.5" width="19" height="195" stroke="#FFFFFF" stroke-width="1" fill="#13363B" rx="0" ry="0"></rect><rect x="48.5" y="169.5" width="19" height="150" stroke="#FFFFFF" stroke-width="1" fill="#67BAC2" rx="0" ry="0"></rect><rect x="87.5" y="124.5" width="19" height="195" stroke="#FFFFFF" stroke-width="1" fill="#67BAC2" rx="0" ry="0"></rect><rect x="127.5" y="67.5" width="19" height="252" stroke="#FFFFFF" stroke-width="1" fill="#67BAC2" rx="0" ry="0"></rect><rect x="166.5" y="22.5" width="19" height="297" stroke="#FFFFFF" stroke-width="1" fill="#67BAC2" rx="0" ry="0"></rect><rect x="205.5" y="242.5" width="19" height="77" stroke="#FFFFFF" stroke-width="1" fill="#67BAC2" rx="0" ry="0"></rect><rect x="244.5" y="214.5" width="19" height="105" stroke="#FFFFFF" stroke-width="1" fill="#13363B" rx="0" ry="0"></rect><rect x="283.5" y="150.5" width="19" height="169" stroke="#FFFFFF" stroke-width="1" fill="#13363B" rx="0" ry="0"></rect><rect x="322.5" y="191.5" width="19" height="128" stroke="#FFFFFF" stroke-width="1" fill="#67BAC2" rx="0" ry="0"></rect><rect x="361.5" y="147.5" width="19" height="172" stroke="#FFFFFF" stroke-width="1" fill="#67BAC2" rx="0" ry="0"></rect><rect x="401.5" y="93.5" width="19" height="226" stroke="#FFFFFF" stroke-width="1" fill="#67BAC2" rx="0" ry="0"></rect><rect x="440.5" y="41.5" width="19" height="278" stroke="#FFFFFF" stroke-width="1" fill="#67BAC2" rx="0" ry="0"></rect><rect x="479.5" y="265.5" width="19" height="54" stroke="#FFFFFF" stroke-width="1" fill="#67BAC2" rx="0" ry="0"></rect><rect x="518.5" y="226.5" width="19" height="93" stroke="#FFFFFF" stroke-width="1" fill="#13363B" rx="0" ry="0"></rect></g><g class="highcharts-markers highcharts-series-0" transform="translate(42,10) scale(1 1)" clip-path="none"></g><g class="highcharts-series highcharts-series-1" transform="translate(42,10) scale(1 1)" clip-path="url(#highcharts-23)"></g><g class="highcharts-markers highcharts-series-1" transform="translate(42,10) scale(1 1)" clip-path="none"></g></g><g class="highcharts-data-labels highcharts-series-0" transform="translate(42,10) scale(1 1)" opacity="1"><g style="cursor:pointer;" transform="translate(8,104)"><text x="5" style="font-size:10px;font-weight:bold;font-family:'arial', sans-serif;color:#000000;text-shadow:0 0 6px #ffffff, 0 0 3px #ffffff;fill:#000000;text-rendering:geometricprecision;" y="15"><tspan>61</tspan></text></g><g style="cursor:pointer;" transform="translate(47,149)"><text x="5" style="font-size:10px;font-weight:bold;font-family:'arial', sans-serif;color:#000000;text-shadow:0 0 6px #ffffff, 0 0 3px #ffffff;fill:#000000;text-rendering:geometricprecision;" y="15"><tspan>47</tspan></text></g><g style="cursor:pointer;" transform="translate(86,104)"><text x="5" style="font-size:10px;font-weight:bold;font-family:'arial', sans-serif;color:#000000;text-shadow:0 0 6px #ffffff, 0 0 3px #ffffff;fill:#000000;text-rendering:geometricprecision;" y="15"><tspan>61</tspan></text></g><g style="cursor:pointer;" transform="translate(126,47)"><text x="5" style="font-size:10px;font-weight:bold;font-family:'arial', sans-serif;color:#000000;text-shadow:0 0 6px #ffffff, 0 0 3px #ffffff;fill:#000000;text-rendering:geometricprecision;" y="15"><tspan>79</tspan></text></g><g style="cursor:pointer;" transform="translate(165,2)"><text x="5" style="font-size:10px;font-weight:bold;font-family:'arial', sans-serif;color:#000000;text-shadow:0 0 6px #ffffff, 0 0 3px #ffffff;fill:#000000;text-rendering:geometricprecision;" y="15"><tspan>93</tspan></text></g><g style="cursor:pointer;" transform="translate(204,222)"><text x="5" style="font-size:10px;font-weight:bold;font-family:'arial', sans-serif;color:#000000;text-shadow:0 0 6px #ffffff, 0 0 3px #ffffff;fill:#000000;text-rendering:geometricprecision;" y="15"><tspan>24</tspan></text></g><g style="cursor:pointer;" transform="translate(243,194)"><text x="5" style="font-size:10px;font-weight:bold;font-family:'arial', sans-serif;color:#000000;text-shadow:0 0 6px #ffffff, 0 0 3px #ffffff;fill:#000000;text-rendering:geometricprecision;" y="15"><tspan>33</tspan></text></g><g style="cursor:pointer;" transform="translate(282,130)"><text x="5" style="font-size:10px;font-weight:bold;font-family:'arial', sans-serif;color:#000000;text-shadow:0 0 6px #ffffff, 0 0 3px #ffffff;fill:#000000;text-rendering:geometricprecision;" y="15"><tspan>53</tspan></text></g><g style="cursor:pointer;" transform="translate(321,171)"><text x="5" style="font-size:10px;font-weight:bold;font-family:'arial', sans-serif;color:#000000;text-shadow:0 0 6px #ffffff, 0 0 3px #ffffff;fill:#000000;text-rendering:geometricprecision;" y="15"><tspan>40</tspan></text></g><g style="cursor:pointer;" transform="translate(360,127)"><text x="5" style="font-size:10px;font-weight:bold;font-family:'arial', sans-serif;color:#000000;text-shadow:0 0 6px #ffffff, 0 0 3px #ffffff;fill:#000000;text-rendering:geometricprecision;" y="15"><tspan>54</tspan></text></g><g style="cursor:pointer;" transform="translate(400,73)"><text x="5" style="font-size:10px;font-weight:bold;font-family:'arial', sans-serif;color:#000000;text-shadow:0 0 6px #ffffff, 0 0 3px #ffffff;fill:#000000;text-rendering:geometricprecision;" y="15"><tspan>71</tspan></text></g><g style="cursor:pointer;" transform="translate(439,21)"><text x="5" style="font-size:10px;font-weight:bold;font-family:'arial', sans-serif;color:#000000;text-shadow:0 0 6px #ffffff, 0 0 3px #ffffff;fill:#000000;text-rendering:geometricprecision;" y="15"><tspan>87</tspan></text></g><g style="cursor:pointer;" transform="translate(478,245)"><text x="5" style="font-size:10px;font-weight:bold;font-family:'arial', sans-serif;color:#000000;text-shadow:0 0 6px #ffffff, 0 0 3px #ffffff;fill:#000000;text-rendering:geometricprecision;" y="15"><tspan>17</tspan></text></g><g style="cursor:pointer;" transform="translate(517,206)"><text x="5" style="font-size:10px;font-weight:bold;font-family:'arial', sans-serif;color:#000000;text-shadow:0 0 6px #ffffff, 0 0 3px #ffffff;fill:#000000;text-rendering:geometricprecision;" y="15"><tspan>29</tspan></text></g></g><g class="highcharts-data-labels highcharts-series-1" transform="translate(42,10) scale(1 1)" opacity="1"></g><g class="highcharts-legend" transform="translate(255,360)"><g><g><g class="highcharts-legend-item" transform="translate(8,3)"><text x="21" style="color:#333;font-size:9pt;font-weight:normal;cursor:pointer;font-family:'lucida grande','lucida sans unicode',arial,helvetica,sans-serif;text-transform:none;fill:#333;" text-anchor="start" y="15">SADNESS</text><rect x="0" y="4" width="16" height="12" fill="#CCC"></rect></g></g></g></g><g class="highcharts-axis-labels highcharts-xaxis-labels"><text x="61.57142857142857" style="color:#000000;cursor:default;font-size:10px;font-family:'arial', sans-serif;text-transform:none;font-weight:normal;fill:#000000;" text-anchor="middle" transform="translate(0,0)" y="347" opacity="1">S</text><text x="100.71428571428572" style="color:#000000;cursor:default;font-size:10px;font-family:'arial', sans-serif;text-transform:none;font-weight:normal;fill:#000000;" text-anchor="middle" transform="translate(0,0)" y="347" opacity="1">M</text><text x="139.85714285714286" style="color:#000000;cursor:default;font-size:10px;font-family:'arial', sans-serif;text-transform:none;font-weight:normal;fill:#000000;" text-anchor="middle" transform="translate(0,0)" y="347" opacity="1">T</text><text x="179" style="color:#000000;cursor:default;font-size:10px;font-family:'arial', sans-serif;text-transform:none;font-weight:normal;fill:#000000;" text-anchor="middle" transform="translate(0,0)" y="347" opacity="1">W</text><text x="218.14285714285717" style="color:#000000;cursor:default;font-size:10px;font-family:'arial', sans-serif;text-transform:none;font-weight:normal;fill:#000000;" text-anchor="middle" transform="translate(0,0)" y="347" opacity="1">T</text><text x="257.28571428571433" style="color:#000000;cursor:default;font-size:10px;font-family:'arial', sans-serif;text-transform:none;font-weight:normal;fill:#000000;" text-anchor="middle" transform="translate(0,0)" y="347" opacity="1">F</text><text x="296.42857142857144" style="color:#000000;cursor:default;font-size:10px;font-family:'arial', sans-serif;text-transform:none;font-weight:normal;fill:#000000;" text-anchor="middle" transform="translate(0,0)" y="347" opacity="1">S</text><text x="335.5714285714286" style="color:#000000;cursor:default;font-size:10px;font-family:'arial', sans-serif;text-transform:none;font-weight:normal;fill:#000000;" text-anchor="middle" transform="translate(0,0)" y="347" opacity="1">S</text><text x="374.7142857142857" style="color:#000000;cursor:default;font-size:10px;font-family:'arial', sans-serif;text-transform:none;font-weight:normal;fill:#000000;" text-anchor="middle" transform="translate(0,0)" y="347" opacity="1">M</text><text x="413.8571428571429" style="color:#000000;cursor:default;font-size:10px;font-family:'arial', sans-serif;text-transform:none;font-weight:normal;fill:#000000;" text-anchor="middle" transform="translate(0,0)" y="347" opacity="1">T</text><text x="453.00000000000006" style="color:#000000;cursor:default;font-size:10px;font-family:'arial', sans-serif;text-transform:none;font-weight:normal;fill:#000000;" text-anchor="middle" transform="translate(0,0)" y="347" opacity="1">W</text><text x="492.14285714285717" style="color:#000000;cursor:default;font-size:10px;font-family:'arial', sans-serif;text-transform:none;font-weight:normal;fill:#000000;" text-anchor="middle" transform="translate(0,0)" y="347" opacity="1">T</text><text x="531.2857142857143" style="color:#000000;cursor:default;font-size:10px;font-family:'arial', sans-serif;text-transform:none;font-weight:normal;fill:#000000;" text-anchor="middle" transform="translate(0,0)" y="347" opacity="1">F</text><text x="570.4285714285714" style="color:#000000;cursor:default;font-size:10px;font-family:'arial', sans-serif;text-transform:none;font-weight:normal;fill:#000000;" text-anchor="middle" transform="translate(0,0)" y="347" opacity="1">S</text></g><g class="highcharts-axis-labels highcharts-yaxis-labels"><text x="27" style="color:#000000;cursor:default;font-size:10px;font-family:'arial', sans-serif;text-transform:none;font-weight:normal;fill:#000000;width:188px;text-overflow:clip;" text-anchor="end" transform="translate(0,0)" y="334" opacity="1"><tspan>0</tspan></text><text x="27" style="color:#000000;cursor:default;font-size:10px;font-family:'arial', sans-serif;text-transform:none;font-weight:normal;fill:#000000;width:188px;text-overflow:clip;" text-anchor="end" transform="translate(0,0)" y="270" opacity="1"><tspan>20</tspan></text><text x="27" style="color:#000000;cursor:default;font-size:10px;font-family:'arial', sans-serif;text-transform:none;font-weight:normal;fill:#000000;width:188px;text-overflow:clip;" text-anchor="end" transform="translate(0,0)" y="206" opacity="1"><tspan>40</tspan></text><text x="27" style="color:#000000;cursor:default;font-size:10px;font-family:'arial', sans-serif;text-transform:none;font-weight:normal;fill:#000000;width:188px;text-overflow:clip;" text-anchor="end" transform="translate(0,0)" y="142" opacity="1"><tspan>60</tspan></text><text x="27" style="color:#000000;cursor:default;font-size:10px;font-family:'arial', sans-serif;text-transform:none;font-weight:normal;fill:#000000;width:188px;text-overflow:clip;" text-anchor="end" transform="translate(0,0)" y="78" opacity="1"><tspan>80</tspan></text><text x="27" style="color:#000000;cursor:default;font-size:10px;font-family:'arial', sans-serif;text-transform:none;font-weight:normal;fill:#000000;width:188px;text-overflow:clip;" text-anchor="end" transform="translate(0,0)" y="15" opacity="1"><tspan>100</tspan></text></g><g class="highcharts-tooltip" display="none" style="cursor:default;padding:0;pointer-events:none;white-space:nowrap;" transform="translate(0,0)"><path fill="none" d="M 3.5 0.5 L 13.5 0.5 C 16.5 0.5 16.5 0.5 16.5 3.5 L 16.5 13.5 C 16.5 16.5 16.5 16.5 13.5 16.5 L 3.5 16.5 C 0.5 16.5 0.5 16.5 0.5 13.5 L 0.5 3.5 C 0.5 0.5 0.5 0.5 3.5 0.5"  stroke="black" stroke-opacity="0.049999999999999996" stroke-width="5" transform="translate(1, 1)"></path><path fill="none" d="M 3.5 0.5 L 13.5 0.5 C 16.5 0.5 16.5 0.5 16.5 3.5 L 16.5 13.5 C 16.5 16.5 16.5 16.5 13.5 16.5 L 3.5 16.5 C 0.5 16.5 0.5 16.5 0.5 13.5 L 0.5 3.5 C 0.5 0.5 0.5 0.5 3.5 0.5"  stroke="black" stroke-opacity="0.09999999999999999" stroke-width="3" transform="translate(1, 1)"></path><path fill="none" d="M 3.5 0.5 L 13.5 0.5 C 16.5 0.5 16.5 0.5 16.5 3.5 L 16.5 13.5 C 16.5 16.5 16.5 16.5 13.5 16.5 L 3.5 16.5 C 0.5 16.5 0.5 16.5 0.5 13.5 L 0.5 3.5 C 0.5 0.5 0.5 0.5 3.5 0.5"  stroke="black" stroke-opacity="0.15" stroke-width="1" transform="translate(1, 1)"></path><path fill="rgb(255, 255, 255)" fill-opacity=" 0.85" d="M 3.5 0.5 L 13.5 0.5 C 16.5 0.5 16.5 0.5 16.5 3.5 L 16.5 13.5 C 16.5 16.5 16.5 16.5 13.5 16.5 L 3.5 16.5 C 0.5 16.5 0.5 16.5 0.5 13.5 L 0.5 3.5 C 0.5 0.5 0.5 0.5 3.5 0.5"></path><text x="8" style="font-size:12px;color:#000000;fill:#000000;" y="20"></text></g><text x="590" text-anchor="end" style="cursor:pointer;color:#909090;font-size:9px;fill:#909090;" y="395">meta-chart.com</text></svg>