<?xml version="1.0" encoding="iso-8859-1"?>
<!-- Generator: Adobe Illustrator 18.1.1, SVG Export Plug-In . SVG Version: 6.00 Build 0)  -->
<svg xmlns="http://www.w3.org/2000/svg" xmlns:xlink="http://www.w3.org/1999/xlink" version="1.1" id="Capa_1" x="0px" y="0px" viewBox="0 0 16 16" style="enable-background:new 0 0 16 16;" xml:space="preserve" width="512px" height="512px">
<g>
	<path d="M13,5.5C13,2.463,10.762,0,8,0S3,2.463,3,5.5C3,5.669,3.007,5.835,3.021,6H3c0,3.021,5,10,5,10   s5-6.994,5-10h-0.021C12.993,5.835,13,5.669,13,5.5z M8,7C6.896,7,6,6.104,6,5s0.896-2,2-2s2,0.896,2,2S9.104,7,8,7z" fill="#DBE4E8"/>
</g>
<g>
</g>
<g>
</g>
<g>
</g>
<g>
</g>
<g>
</g>
<g>
</g>
<g>
</g>
<g>
</g>
<g>
</g>
<g>
</g>
<g>
</g>
<g>
</g>
<g>
</g>
<g>
</g>
<g>
</g>
</svg>
