<?xml version="1.0" encoding="iso-8859-1"?>
<!-- Generator: Adobe Illustrator 18.1.1, SVG Export Plug-In . SVG Version: 6.00 Build 0)  -->
<svg xmlns="http://www.w3.org/2000/svg" xmlns:xlink="http://www.w3.org/1999/xlink" version="1.1" id="Capa_1" x="0px" y="0px" viewBox="0 0 16 16" style="enable-background:new 0 0 16 16;" xml:space="preserve" width="512px" height="512px">
<g>
	<path d="M8,0C3.582,0,0,3.582,0,8s3.582,8,8,8s8-3.582,8-8S12.418,0,8,0z M8,14c-3.313,0-6-2.687-6-6   s2.687-6,6-6s6,2.687,6,6S11.313,14,8,14z" fill="#DBE4E8"/>
	<path d="M10.5,10H9V8.731c0.598-0.346,1-0.992,1-1.729V4.998C10,3.895,9.112,3,8,3C6.896,3,6,3.898,6,4.998   v2.004C6,7.743,6.4,8.39,7,8.734V10H5.5c-0.9,0-1.396,0.405-1.485,1.217C4.889,12.343,6.28,13,8,13s3.111-0.657,3.985-1.783   C11.896,10.405,11.4,10,10.5,10z" fill="#DBE4E8"/>
</g>
<g>
</g>
<g>
</g>
<g>
</g>
<g>
</g>
<g>
</g>
<g>
</g>
<g>
</g>
<g>
</g>
<g>
</g>
<g>
</g>
<g>
</g>
<g>
</g>
<g>
</g>
<g>
</g>
<g>
</g>
</svg>
