<?xml version="1.0" encoding="iso-8859-1"?>
<!-- Generator: Adobe Illustrator 18.1.1, SVG Export Plug-In . SVG Version: 6.00 Build 0)  -->
<svg xmlns="http://www.w3.org/2000/svg" xmlns:xlink="http://www.w3.org/1999/xlink" version="1.1" id="Capa_1" x="0px" y="0px" viewBox="0 0 14 14" style="enable-background:new 0 0 14 14;" xml:space="preserve" width="512px" height="512px">
<g>
	<g>
		<path d="M7.16,2c1.21,0,2.419,0.898,2.904,2h1.096c-0.534-1.617-2.268-3-4-3s-3.466,1.383-4,3h1.097    C4.741,2.898,5.951,2,7.16,2z" fill="#DBE4E8"/>
		<path d="M12.993,5H1.007C0.451,5,0,5.453,0,5.997v6.006C0,12.555,0.45,13,1.007,13h11.986    C13.549,13,14,12.547,14,12.003V5.997C14,5.446,13.55,5,12.993,5z" fill="#DBE4E8"/>
	</g>
</g>
<g>
</g>
<g>
</g>
<g>
</g>
<g>
</g>
<g>
</g>
<g>
</g>
<g>
</g>
<g>
</g>
<g>
</g>
<g>
</g>
<g>
</g>
<g>
</g>
<g>
</g>
<g>
</g>
<g>
</g>
</svg>
