<?xml version="1.0" encoding="iso-8859-1"?>
<!-- Generator: Adobe Illustrator 18.1.1, SVG Export Plug-In . SVG Version: 6.00 Build 0)  -->
<svg xmlns="http://www.w3.org/2000/svg" xmlns:xlink="http://www.w3.org/1999/xlink" version="1.1" id="Capa_1" x="0px" y="0px" viewBox="0 0 16 16" style="enable-background:new 0 0 16 16;" xml:space="preserve" width="512px" height="512px">
<g>
	<path d="M2,5h1c0-1,1-2,2-2V2C3.5,2,2,3.5,2,5z" fill="#8F8F8F"/>
	<path d="M9.932,8.758C10.604,7.846,11,6.719,11,5.5C11,2.462,8.537,0,5.5,0S0,2.462,0,5.5   C0,8.537,2.463,11,5.5,11c1.258,0,2.416-0.422,3.343-1.132L9,10l6,6l1-1l-5.957-5.991L9.932,8.758z M5.5,10C3.015,10,1,7.985,1,5.5   S3.015,1,5.5,1S10,3.015,10,5.5S7.985,10,5.5,10z" fill="#8F8F8F"/>
</g>
<g>
</g>
<g>
</g>
<g>
</g>
<g>
</g>
<g>
</g>
<g>
</g>
<g>
</g>
<g>
</g>
<g>
</g>
<g>
</g>
<g>
</g>
<g>
</g>
<g>
</g>
<g>
</g>
<g>
</g>
</svg>
