<?xml version="1.0" encoding="iso-8859-1"?>
<!-- Generator: Adobe Illustrator 18.1.1, SVG Export Plug-In . SVG Version: 6.00 Build 0)  -->
<svg xmlns="http://www.w3.org/2000/svg" xmlns:xlink="http://www.w3.org/1999/xlink" version="1.1" id="Capa_1" x="0px" y="0px" viewBox="0 0 523.547 523.547" style="enable-background:new 0 0 523.547 523.547;" xml:space="preserve" width="512px" height="512px">
<g>
	<g>
		<path d="M523.547,393.258v71.719c0,3.186-0.996,5.975-2.988,8.367c-1.992,2.391-4.383,3.586-7.172,3.586    H303.609c-2.789,0-5.18-1.196-7.172-3.586c-1.992-2.392-2.988-5.181-2.988-8.367v-71.719c0-3.188,0.996-5.978,2.988-8.367    c1.992-2.394,4.383-3.586,7.172-3.586h41.238l-53.789-71.722h-58.571l-53.789,71.722h41.238c2.789,0,5.18,1.193,7.172,3.586    c1.992,2.389,2.988,5.179,2.988,8.367v71.719c0,3.186-0.996,5.975-2.988,8.367c-1.992,2.391-4.383,3.586-7.172,3.586H10.16    c-2.789,0-5.18-1.196-7.172-3.586C0.996,470.952,0,468.163,0,464.977v-71.719c0-3.188,0.996-5.978,2.988-8.367    c1.992-2.394,4.383-3.586,7.172-3.586h126.105l57.375-71.722h-36.457c-3.188,0-5.778-1.193-7.77-3.586    c-1.992-2.389-2.988-5.178-2.988-8.364v-71.72c0-3.187,0.995-5.976,2.988-8.366c1.993-2.392,4.582-3.587,7.77-3.587h86.66v-71.719    h-86.66c-3.188,0-5.778-1.196-7.77-3.586c-1.992-2.39-2.988-5.179-2.988-8.367V58.57c0-3.187,0.995-5.976,2.988-8.367    c1.993-2.391,4.582-3.586,7.77-3.586h209.18c3.189,0,5.779,1.196,7.771,3.586c1.988,2.39,2.984,5.179,2.984,8.367v71.719    c0,3.187-0.994,5.976-2.984,8.367c-1.994,2.391-4.584,3.586-7.771,3.586h-86.66v71.719h86.66c3.189,0,5.779,1.196,7.771,3.587    c1.988,2.39,2.984,5.179,2.984,8.366v71.72c0,3.186-0.994,5.975-2.984,8.364c-1.994,2.394-4.584,3.586-7.771,3.586h-36.457    l57.375,71.722h126.105c2.789,0,5.18,1.193,7.172,3.586C522.551,387.279,523.547,390.069,523.547,393.258z" fill="#DBE4E8"/>
	</g>
</g>
<g>
</g>
<g>
</g>
<g>
</g>
<g>
</g>
<g>
</g>
<g>
</g>
<g>
</g>
<g>
</g>
<g>
</g>
<g>
</g>
<g>
</g>
<g>
</g>
<g>
</g>
<g>
</g>
<g>
</g>
</svg>
